<?xml version="1.0" standalone="no"?>
<!DOCTYPE svg PUBLIC "-//W3C//DTD SVG 20010904//EN"
 "http://www.w3.org/TR/2001/REC-SVG-20010904/DTD/svg10.dtd">
<svg version="1.0" xmlns="http://www.w3.org/2000/svg"
 width="735.000000pt" height="316.000000pt" viewBox="0 0 735.000000 316.000000"
 preserveAspectRatio="xMidYMid meet">

<g transform="translate(0.000000,316.000000) scale(0.100000,-0.100000)"
fill="#000000" stroke="none">
<path d="M2631 2274 c-83 -70 -41 -194 66 -194 38 0 50 5 79 34 24 24 34 43
34 65 0 99 -107 156 -179 95z"/>
<path d="M4877 2264 c-13 -13 -8 -763 5 -807 19 -62 63 -102 130 -117 50 -11
66 -11 123 5 72 19 73 22 51 95 -11 35 -18 44 -32 42 -75 -14 -90 -13 -107 5
-15 17 -17 56 -19 399 l-3 379 -70 3 c-39 1 -74 0 -78 -4z"/>
<path d="M2002 1783 l3 -438 255 0 255 0 3 72 3 73 -178 2 -178 3 -3 363 -2
362 -80 0 -80 0 2 -437z"/>
<path d="M5714 2165 c-2 -5 -5 -44 -6 -85 l-3 -75 -47 -3 -48 -3 0 -64 0 -64
48 -3 47 -3 5 -205 c5 -225 11 -248 69 -289 63 -45 209 -49 267 -7 17 13 17
18 5 67 -8 30 -15 57 -17 60 -2 4 -22 0 -44 -7 -23 -8 -52 -11 -66 -8 -49 12
-55 36 -52 220 l3 169 83 3 82 3 0 64 0 65 -85 0 -84 0 -3 88 -3 87 -74 0
c-41 0 -75 -4 -77 -10z"/>
<path d="M2624 1995 c-3 -6 -3 -154 -2 -330 l3 -320 75 0 75 0 0 325 0 325
-74 5 c-45 3 -75 1 -77 -5z"/>
<path d="M3195 1998 c-16 -6 -44 -21 -62 -34 -40 -31 -43 -30 -43 6 l0 30 -75
0 -75 0 2 -327 3 -328 75 0 75 0 1 196 c1 214 8 250 55 295 26 24 37 28 89 29
44 0 65 -5 87 -21 53 -39 57 -61 61 -291 l4 -213 73 0 73 0 4 213 c3 208 4
214 28 250 27 40 53 54 108 62 49 6 100 -13 126 -48 19 -26 21 -45 26 -250 l5
-222 75 0 75 0 0 255 c0 253 0 255 -25 300 -37 66 -101 102 -194 108 -94 6
-162 -16 -218 -69 l-42 -39 -30 36 c-42 52 -96 74 -181 73 -38 0 -83 -5 -100
-11z"/>
<path d="M4330 2001 c-89 -29 -175 -104 -209 -182 -31 -68 -37 -171 -16 -245
54 -194 271 -292 476 -214 53 19 119 67 119 84 0 6 -19 31 -42 55 -34 36 -44
42 -57 32 -73 -53 -129 -68 -203 -56 -53 9 -138 88 -138 128 l0 27 243 2 242
3 -3 68 c-5 130 -60 225 -159 273 -46 23 -72 29 -142 31 -47 1 -97 -1 -111 -6z
m176 -140 c44 -20 78 -60 89 -104 l7 -27 -171 0 c-187 0 -187 0 -157 58 44 84
141 114 232 73z"/>
<path d="M5322 1995 c-4 -5 -7 -154 -7 -330 l0 -320 75 0 75 0 0 330 0 330
-68 0 c-38 0 -72 -4 -75 -10z"/>
<path d="M6340 2001 c-131 -43 -219 -155 -235 -297 -12 -113 37 -234 121 -298
127 -98 344 -93 460 9 l39 34 -46 46 -47 45 -48 -30 c-91 -56 -194 -49 -265
18 -23 22 -42 50 -45 70 l-6 32 242 0 242 0 -4 88 c-7 131 -52 207 -153 260
-41 21 -66 26 -140 29 -49 1 -101 -1 -115 -6z m196 -148 c31 -20 59 -60 68
-95 l6 -28 -164 0 c-98 0 -167 4 -171 10 -8 13 21 73 45 95 50 45 161 54 216
18z"/>
<path d="M3005 1199 c-122 -36 -143 -209 -33 -273 100 -60 228 13 228 129 0
100 -98 173 -195 144z m90 -43 c40 -17 65 -60 65 -112 0 -28 -8 -44 -35 -71
-33 -33 -39 -35 -82 -30 -63 7 -103 49 -103 108 0 51 13 75 53 99 38 24 57 25
102 6z"/>
<path d="M1970 1055 c0 -138 1 -145 20 -145 19 0 20 7 20 145 0 138 -1 145
-20 145 -19 0 -20 -7 -20 -145z"/>
<path d="M2150 1055 c0 -138 1 -145 20 -145 18 0 20 8 22 106 l3 106 85 -106
c49 -61 92 -106 103 -106 15 0 17 14 17 145 0 138 -1 145 -20 145 -18 0 -20
-8 -22 -107 l-3 -108 -88 108 c-49 59 -95 107 -103 107 -11 0 -14 -26 -14
-145z"/>
<path d="M2540 1055 c0 -138 1 -145 20 -145 19 0 20 7 20 100 0 55 4 100 9
100 5 0 11 -4 13 -9 7 -22 153 -191 163 -191 8 0 14 36 18 110 6 126 1 180
-19 180 -11 0 -14 -22 -14 -100 0 -55 -4 -100 -9 -100 -6 0 -47 45 -91 100
-45 55 -88 100 -96 100 -11 0 -14 -28 -14 -145z"/>
<path d="M3280 1192 c0 -4 27 -68 60 -142 73 -167 85 -173 131 -73 17 37 46
103 65 146 33 76 33 78 12 75 -18 -2 -31 -25 -68 -112 -25 -61 -50 -111 -56
-113 -5 -2 -31 49 -57 112 -38 90 -53 115 -68 115 -10 0 -19 -3 -19 -8z"/>
<path d="M3727 1163 c-64 -147 -107 -246 -107 -249 0 -2 9 -4 20 -4 13 0 25
12 34 35 l15 35 75 0 74 0 21 -35 c18 -32 51 -48 51 -26 0 5 -29 70 -65 145
-71 151 -88 165 -118 99z m71 -80 c12 -28 22 -56 22 -62 0 -7 -23 -11 -55 -11
-30 0 -55 3 -55 8 0 8 39 112 47 125 8 12 17 -1 41 -60z"/>
<path d="M3970 1186 c0 -11 14 -16 48 -18 l47 -3 3 -127 c2 -119 4 -128 22
-128 18 0 20 9 22 128 l3 127 44 5 c25 3 46 11 49 18 3 9 -25 12 -117 12 -99
0 -121 -3 -121 -14z"/>
<path d="M4353 1178 c-88 -62 -83 -206 9 -254 42 -22 114 -22 156 0 92 48 98
200 9 254 -48 31 -131 30 -174 0z m170 -48 c21 -24 27 -40 27 -78 -1 -68 -44
-112 -110 -112 -66 0 -109 44 -110 111 0 50 25 93 64 110 40 17 99 3 129 -31z"/>
<path d="M4714 1187 c-2 -7 -3 -71 -2 -142 3 -114 5 -130 21 -133 13 -3 17 4
17 32 0 40 2 42 52 51 35 7 38 5 69 -39 19 -26 41 -46 51 -46 23 0 23 2 -7 46
-30 44 -31 50 -6 64 25 13 44 70 35 104 -3 14 -20 37 -36 51 -26 22 -39 25
-109 25 -56 0 -81 -4 -85 -13z m135 -23 c21 -5 37 -16 46 -35 20 -37 19 -51
-5 -77 -17 -18 -32 -22 -80 -22 l-60 0 0 63 c0 35 3 67 7 70 8 9 51 9 92 1z"/>
<path d="M5091 1174 c-58 -49 -34 -112 51 -134 92 -23 115 -45 83 -80 -22 -25
-87 -27 -129 -5 -20 11 -33 12 -40 5 -16 -16 14 -40 63 -51 103 -23 192 47
147 116 -11 17 -37 30 -85 45 -82 24 -100 50 -60 83 24 19 56 19 117 1 18 -5
22 -2 22 14 0 23 -25 32 -92 32 -36 0 -54 -6 -77 -26z"/>
<path d="M5654 1187 c-2 -7 -3 -71 -2 -142 3 -113 5 -130 20 -133 14 -3 17 7
20 60 l3 63 82 3 82 3 3 -63 c2 -50 6 -63 21 -66 16 -3 17 9 17 142 0 121 -2
146 -15 146 -10 0 -15 -15 -17 -57 l-3 -58 -87 -3 -88 -3 0 61 c0 47 -3 60
-15 60 -9 0 -18 -6 -21 -13z"/>
<path d="M6052 1085 l3 -117 32 -28 c65 -58 159 -44 196 30 25 50 21 223 -5
228 -16 3 -18 -7 -18 -93 0 -100 -13 -146 -45 -159 -31 -12 -73 -6 -96 13 -22
17 -24 29 -29 127 -4 95 -7 109 -23 112 -18 4 -19 -4 -15 -113z"/>
<path d="M6445 1190 c-3 -5 -4 -69 -1 -142 l5 -133 101 -3 c98 -3 101 -2 125
24 32 34 32 65 0 102 -22 26 -23 31 -10 42 25 21 19 76 -11 99 -22 18 -41 21
-115 21 -48 0 -90 -4 -94 -10z m173 -36 c25 -17 29 -46 7 -64 -8 -6 -41 -14
-74 -17 -54 -5 -59 -4 -66 16 -3 12 -4 35 0 51 6 29 9 30 59 30 30 0 61 -6 74
-16z m24 -131 c47 -42 4 -83 -89 -83 -34 0 -64 3 -66 8 -2 4 -2 26 1 50 l4 42
66 0 c47 0 71 -5 84 -17z"/>
</g>
</svg>
